<!DOCTYPE html>
<html lang="en">

<head>

    
    <script async src="https://www.googletagmanager.com/gtag/js?id=UA-162942761-1"></script>
    <script>
    window.dataLayer = window.dataLayer || [];
    function gtag(){dataLayer.push(arguments);}
    gtag('js', new Date());

    gtag('config', 'UA-162942761-1');
    </script>

    <meta charset="utf-8">
<meta name="viewport" content="width=device-width, initial-scale=1, shrink-to-fit=no">

<meta property="og:title" content="Sound file properties" />
<meta property="og:description" content="filename = &#39;/Users/othrif/spectrum/voice/datasets/free-spoken-digit-dataset/recordings/4_yweweler_5.wav&#39; In python import sox sox.file_info.info(filename) {&#39;channels&#39;: 1, &#39;sample_rate&#39;: 8000.0, &#39;bitdepth&#39;: 16, &#39;bitrate&#39;: 129000.0, &#39;duration&#39;: 0.333875, &#39;num_samples&#39;: 2671, &#39;encoding&#39;: &#39;Signed Integer PCM&#39;, &#39;silent&#39;: False}  In CLI !soxi /Users/othrif/spectrum/voice/datasets/free-spoken-digit-dataset/recordings/4_yweweler_5.wav Input File : &#39;/Users/othrif/spectrum/voice/datasets/free-spoken-digit-dataset/recordings/4_yweweler_5.wav&#39; Channels : 1 Sample Rate : 8000 Precision : 16-bit Duration : 00:00:00.33 = 2671 samples ~ 25.0406 CDDA sectors File Size : 5.39k Bit Rate : 129k Sample Encoding: 16-bit Signed Integer PCM  !" />
<meta property="og:type" content="article" />
<meta property="og:url" content="https://othrif.github.io/machine_learning/preprocessing_voice/soundfile_prop.html" /><meta property="article:section" content="machine_learning" />
<meta property="article:published_time" content="2020-04-12T14:41:32+02:00" />
<meta property="article:modified_time" content="2020-04-12T14:41:32+02:00" />


<meta name="twitter:card" content="summary"/>
<meta name="twitter:title" content="Sound file properties"/>
<meta name="twitter:description" content="filename = &#39;/Users/othrif/spectrum/voice/datasets/free-spoken-digit-dataset/recordings/4_yweweler_5.wav&#39; In python import sox sox.file_info.info(filename) {&#39;channels&#39;: 1, &#39;sample_rate&#39;: 8000.0, &#39;bitdepth&#39;: 16, &#39;bitrate&#39;: 129000.0, &#39;duration&#39;: 0.333875, &#39;num_samples&#39;: 2671, &#39;encoding&#39;: &#39;Signed Integer PCM&#39;, &#39;silent&#39;: False}  In CLI !soxi /Users/othrif/spectrum/voice/datasets/free-spoken-digit-dataset/recordings/4_yweweler_5.wav Input File : &#39;/Users/othrif/spectrum/voice/datasets/free-spoken-digit-dataset/recordings/4_yweweler_5.wav&#39; Channels : 1 Sample Rate : 8000 Precision : 16-bit Duration : 00:00:00.33 = 2671 samples ~ 25.0406 CDDA sectors File Size : 5.39k Bit Rate : 129k Sample Encoding: 16-bit Signed Integer PCM  !"/>
<meta name="generator" content="Hugo 0.85.0" />

    
<script type="application/ld+json">
{
  "@context": "http://schema.org",
  "@type": "BlogPosting",
  "headline": "Sound file properties",
  "url": "https:\/\/othrif.github.io\/machine_learning\/preprocessing_voice\/soundfile_prop.html",
  "wordCount": "232",
  "datePublished": "2020-04-12T14:41:32\u002b02:00",
  "dateModified": "2020-04-12T14:41:32\u002b02:00",
  "author": {
    "@type": "Person",
    "name": "Othmane Rifki"
  }
}
</script> 

    <title>Sound file properties</title>

    
    <link rel="stylesheet" href="https://maxcdn.bootstrapcdn.com/bootstrap/4.0.0-beta.2/css/bootstrap.min.css" integrity="sha384-PsH8R72JQ3SOdhVi3uxftmaW6Vc51MKb0q5P2rRUpPvrszuE4W1povHYgTpBfshb"
        crossorigin="anonymous">

    
    <link href="https://othrif.github.io/css/custom.css" rel="stylesheet">
    <link href="https://othrif.github.io/css/syntax.css" rel="stylesheet"> 
    
    <link href="https://fonts.googleapis.com/css?family=Muli:400,500,700" rel="stylesheet">

    
    <link href="" rel="alternate" type="application/rss+xml" title="Othmane Rifki All Notes And Articles" />
    
    <link href="https://othrif.github.io/articles/index.xml" rel="alternate" type="application/rss+xml" title="Othmane Rifki Articles" />

    <script type="text/javascript" async
  src="https://cdnjs.cloudflare.com/ajax/libs/mathjax/2.7.2/MathJax.js?config=TeX-MML-AM_CHTML">
</script>
<script type="text/x-mathjax-config">
MathJax.Hub.Config({
  tex2jax: {
    inlineMath: [['$','$'], ['\\(','\\)']],
    displayMath: [['$$','$$'], ['\[','\]']],
    processEscapes: true,
    processEnvironments: true,
    skipTags: ['script', 'noscript', 'style', 'textarea', 'pre','code'],
    TeX: { equationNumbers: { autoNumber: "AMS" },
         extensions: ["AMSmath.js", "AMSsymbols.js"] }
  }
});
</script>

</head>

<body>

    <nav class="navbar navbar-expand-sm fixed-top">
        <div class="container">
            <a class="navbar-brand" href="https://othrif.github.io">Othmane Rifki</a>
            <button class="navbar-toggler" type="button" data-toggle="collapse" data-target="#navbarSupportedContent" aria-controls="navbarSupportedContent"
                aria-expanded="false" aria-label="Toggle navigation">
                <span class="navbar-toggler-icon"></span>
            </button>

            <div class="collapse navbar-collapse" id="navbarSupportedContent">
                    <ul class="nav navbar-nav mr-auto"></ul>
                <ul class="navbar-nav">

                    <li class="nav-item dropdown">
                        <a class="nav-link dropdown-toggle" href="#" id="navbarDropdown" role="button" data-toggle="dropdown" aria-haspopup="true"
                            aria-expanded="false">
                            Technical Notes
                        </a>
                        <div class="dropdown-menu dropdown-menu-right" aria-labelledby="navbarDropdown">
                            <a class="dropdown-item" href="https://othrif.github.io#python">Python</a>
                            <a class="dropdown-item" href="https://othrif.github.io#machine_learning">Machine Learning</a>
                            <a class="dropdown-item" href="https://othrif.github.io#linux">Linux</a>
                            <a class="dropdown-item" href="https://othrif.github.io#scripting">Scripting</a>
                            <a class="dropdown-item" href="https://othrif.github.io#coding">Coding Practice</a>
                        </div>
                    </li>
                    
                    <li class="nav-item dropdown">
                        <a class="nav-link dropdown-toggle" href="#" id="navbarDropdown" role="button" data-toggle="dropdown" aria-haspopup="true"
                            aria-expanded="false">
                            About
                        </a>
                        <div class="dropdown-menu dropdown-menu-right" aria-labelledby="navbarDropdown">
                            <a class="dropdown-item" href="https://othrif.github.io/about/othmane_rifki.html">About Othmane</a>
                            <a class="dropdown-item" href="https://github.com/othrif" target="_blank">GitHub</a>
                            <a class="dropdown-item" href="https://www.linkedin.com/in/othrif/" target="_blank">LinkedIn</a>
                            <a class="dropdown-item" href="https://twitter.com/othmanerifki" target="_blank">Twitter</a>
                        </div>
                    </li>
                </ul>
            </div>
        </div>
    </nav>


    
    <div class="container">
        <div class="row">
            <div class="col-sm-12">

                 


<article>
  <div class="technical_note">
  <header>
    <h1 class="technical_note_title">Sound file properties</h1>
    <div class="technical_note_date">
      <time datetime=" 2020-04-12T14:41:32&#43;02:00 "> 12 Apr 2020</time>
    </div>
  </header>
  <div class="content">

  <div class="highlight"><pre class="chroma"><code class="language-python" data-lang="python"><span class="n">filename</span> <span class="o">=</span> <span class="s1">&#39;/Users/othrif/spectrum/voice/datasets/free-spoken-digit-dataset/recordings/4_yweweler_5.wav&#39;</span>
</code></pre></div><h1 id="in-python">In python</h1>
<div class="highlight"><pre class="chroma"><code class="language-python" data-lang="python"><span class="kn">import</span> <span class="nn">sox</span>
<span class="n">sox</span><span class="o">.</span><span class="n">file_info</span><span class="o">.</span><span class="n">info</span><span class="p">(</span><span class="n">filename</span><span class="p">)</span>
</code></pre></div><pre><code>{'channels': 1,
 'sample_rate': 8000.0,
 'bitdepth': 16,
 'bitrate': 129000.0,
 'duration': 0.333875,
 'num_samples': 2671,
 'encoding': 'Signed Integer PCM',
 'silent': False}
</code></pre>
<h1 id="in-cli">In CLI</h1>
<div class="highlight"><pre class="chroma"><code class="language-python" data-lang="python"><span class="err">!</span><span class="n">soxi</span> <span class="o">/</span><span class="n">Users</span><span class="o">/</span><span class="n">othrif</span><span class="o">/</span><span class="n">spectrum</span><span class="o">/</span><span class="n">voice</span><span class="o">/</span><span class="n">datasets</span><span class="o">/</span><span class="n">free</span><span class="o">-</span><span class="n">spoken</span><span class="o">-</span><span class="n">digit</span><span class="o">-</span><span class="n">dataset</span><span class="o">/</span><span class="n">recordings</span><span class="o">/</span><span class="mi">4</span><span class="n">_yweweler_5</span><span class="o">.</span><span class="n">wav</span>
</code></pre></div><pre><code>Input File     : '/Users/othrif/spectrum/voice/datasets/free-spoken-digit-dataset/recordings/4_yweweler_5.wav'
Channels       : 1
Sample Rate    : 8000
Precision      : 16-bit
Duration       : 00:00:00.33 = 2671 samples ~ 25.0406 CDDA sectors
File Size      : 5.39k
Bit Rate       : 129k
Sample Encoding: 16-bit Signed Integer PCM
</code></pre>
<div class="highlight"><pre class="chroma"><code class="language-python" data-lang="python"><span class="err">!</span><span class="n">ffprobe</span> <span class="o">-</span><span class="n">i</span> <span class="o">/</span><span class="n">Users</span><span class="o">/</span><span class="n">othrif</span><span class="o">/</span><span class="n">spectrum</span><span class="o">/</span><span class="n">voice</span><span class="o">/</span><span class="n">datasets</span><span class="o">/</span><span class="n">free</span><span class="o">-</span><span class="n">spoken</span><span class="o">-</span><span class="n">digit</span><span class="o">-</span><span class="n">dataset</span><span class="o">/</span><span class="n">recordings</span><span class="o">/</span><span class="mi">4</span><span class="n">_yweweler_5</span><span class="o">.</span><span class="n">wav</span>
</code></pre></div><pre><code>ffprobe version 4.3.1 Copyright (c) 2007-2020 the FFmpeg developers
  built with Apple clang version 12.0.0 (clang-1200.0.32.28)
  configuration: --prefix=/usr/local/Cellar/ffmpeg/4.3.1_8 --enable-shared --enable-pthreads --enable-version3 --enable-avresample --cc=clang --host-cflags= --host-ldflags= --enable-ffplay --enable-gnutls --enable-gpl --enable-libaom --enable-libbluray --enable-libdav1d --enable-libmp3lame --enable-libopus --enable-librav1e --enable-librubberband --enable-libsnappy --enable-libsrt --enable-libtesseract --enable-libtheora --enable-libvidstab --enable-libvorbis --enable-libvpx --enable-libwebp --enable-libx264 --enable-libx265 --enable-libxml2 --enable-libxvid --enable-lzma --enable-libfontconfig --enable-libfreetype --enable-frei0r --enable-libass --enable-libopencore-amrnb --enable-libopencore-amrwb --enable-libopenjpeg --enable-librtmp --enable-libspeex --enable-libsoxr --enable-videotoolbox --enable-libzmq --enable-libzimg --disable-libjack --disable-indev=jack
  libavutil      56. 51.100 / 56. 51.100
  libavcodec     58. 91.100 / 58. 91.100
  libavformat    58. 45.100 / 58. 45.100
  libavdevice    58. 10.100 / 58. 10.100
  libavfilter     7. 85.100 /  7. 85.100
  libavresample   4.  0.  0 /  4.  0.  0
  libswscale      5.  7.100 /  5.  7.100
  libswresample   3.  7.100 /  3.  7.100
  libpostproc    55.  7.100 / 55.  7.100
Input #0, wav, from '/Users/othrif/spectrum/voice/datasets/free-spoken-digit-dataset/recordings/4_yweweler_5.wav':
  Duration: 00:00:00.33, bitrate: 129 kb/s
    Stream #0:0: Audio: pcm_s16le ([1][0][0][0] / 0x0001), 8000 Hz, 1 channels, s16, 128 kb/s
</code></pre>
<h1 id="convert-file-to-a-specified-bit-and-sample-rates">Convert file to a specified bit and sample rates</h1>
<div class="highlight"><pre class="chroma"><code class="language-bash" data-lang="bash">sox &lt;input&gt; -b <span class="m">16</span> -r <span class="m">16000</span> &lt;output&gt;
soxi &lt;input&gt;
</code></pre></div>
</div>
  <aside>
      <div class="bug_reporting">
          <h4>Find an error?</h4>
          <p>All material is saved on GitHub. Please <a href='https://github.com/othrif/notes_othmanerifki/issues/new'>submit a suggested change</a> and include the note's URL in the issue.</p>
      </div>
      </aside>

    </div>
</article>




            </div>

        </div>
    </div>

    

    <footer class="footer text-center">
        <div class="container">
            <span class="text-muted">Copyright &copy; Othmane Rifki, <time datetime="2020">2020</time>. All 145 notes and articles are available on <a href="https://github.com/othrif/">GitHub</a>.</span>
        </div>
    </footer>

    <script src="https://code.jquery.com/jquery-3.2.1.slim.min.js" integrity="sha384-KJ3o2DKtIkvYIK3UENzmM7KCkRr/rE9/Qpg6aAZGJwFDMVNA/GpGFF93hXpG5KkN"
        crossorigin="anonymous"></script>
    <script src="https://cdnjs.cloudflare.com/ajax/libs/popper.js/1.12.3/umd/popper.min.js" integrity="sha384-vFJXuSJphROIrBnz7yo7oB41mKfc8JzQZiCq4NCceLEaO4IHwicKwpJf9c9IpFgh"
        crossorigin="anonymous"></script>
    <script src="https://maxcdn.bootstrapcdn.com/bootstrap/4.0.0-beta.2/js/bootstrap.min.js" integrity="sha384-alpBpkh1PFOepccYVYDB4do5UnbKysX5WZXm3XxPqe5iKTfUKjNkCk9SaVuEZflJ"
        crossorigin="anonymous"></script>

</body>

</html>